<?xml version="1.0" encoding="UTF-8" standalone="no"?>
<svg
   xmlns:dc="http://purl.org/dc/elements/1.1/"
   xmlns:cc="http://creativecommons.org/ns#"
   xmlns:rdf="http://www.w3.org/1999/02/22-rdf-syntax-ns#"
   xmlns:svg="http://www.w3.org/2000/svg"
   xmlns="http://www.w3.org/2000/svg"
   xmlns:sodipodi="http://sodipodi.sourceforge.net/DTD/sodipodi-0.dtd"
   xmlns:inkscape="http://www.inkscape.org/namespaces/inkscape"
   width="258.57486mm"
   height="29.88727mm"
   viewBox="0 0 258.57486 29.88727"
   version="1.1"
   id="svg8"
   inkscape:version="1.0.2-2 (e86c870879, 2021-01-15)"
   sodipodi:docname="white.svg">
  <defs
     id="defs2" />
  <sodipodi:namedview
     id="base"
     pagecolor="#054e1e"
     bordercolor="#666666"
     borderopacity="1.0"
     inkscape:pageopacity="0"
     inkscape:pageshadow="2"
     inkscape:zoom="0.35"
     inkscape:cx="511.64798"
     inkscape:cy="98.938003"
     inkscape:document-units="mm"
     inkscape:current-layer="layer1"
     inkscape:document-rotation="0"
     showgrid="false"
     fit-margin-top="0"
     fit-margin-left="0"
     fit-margin-right="0"
     fit-margin-bottom="0"
     inkscape:window-width="1431"
     inkscape:window-height="938"
     inkscape:window-x="317"
     inkscape:window-y="0"
     inkscape:window-maximized="0" />
  <metadata
     id="metadata5">
    <rdf:RDF>
      <cc:Work
         rdf:about="">
        <dc:format>image/svg+xml</dc:format>
        <dc:type
           rdf:resource="http://purl.org/dc/dcmitype/StillImage" />
        <dc:title></dc:title>
      </cc:Work>
    </rdf:RDF>
  </metadata>
  <g
     inkscape:label="Layer 1"
     inkscape:groupmode="layer"
     id="layer1"
     transform="translate(29.540196,-121.98932)">
    <path
       style="fill:#fefefe;stroke-width:0.264583"
       d="m 228.88159,124.56887 c -0.1741,2.93413 -0.84078,5.74146 -2.12013,8.92771 -2.81224,7.00399 -9.19028,13.38202 -16.19426,16.19427 -4.51738,1.81382 -5.79177,2.03683 -11.6397,2.03683 -4.56865,0 -5.56391,-0.076 -7.28419,-0.55609 -5.28052,-1.47373 -9.4788,-3.74953 -13.20488,-7.15809 l -2.09937,-1.92048 -0.87525,1.6559 c -1.83707,3.47561 -5.98483,6.70559 -9.912,7.71877 -2.11325,0.5452 -6.27703,0.5452 -8.39028,0 -6.39269,-1.64926 -11.81215,-8.18125 -11.81215,-14.23701 v -1.21858 l -1.38907,-0.003 c -2.99349,-0.007 -6.53002,-1.48532 -9.08666,-3.79895 l -1.59731,-1.44548 -0.45638,1.23472 c -0.77561,2.09836 -2.4912,4.71657 -4.2297,6.45507 l -1.66268,1.66268 0.11334,1.7799 c 0.11108,1.74443 0.0948,1.79845 -0.81681,2.71006 -0.8483,0.84829 -1.06413,0.93014 -2.45278,0.93014 -1.43295,0 -1.5821,-0.0625 -2.53231,-1.06139 -0.98868,-1.03931 -1.03324,-1.05596 -2.14185,-0.80022 -1.78307,0.41133 -6.69402,0.32856 -8.65589,-0.14588 -2.30366,-0.55711 -5.62563,-2.20143 -7.42523,-3.67538 -3.01017,-2.46544 -5.613223,-6.53508 -6.392243,-9.99369 l -0.34267,-1.52136 h -2.40535 c -3.62255,0 -5.97172,-0.81635 -8.66732,-3.01195 l -1.42319,-1.1592 -0.30052,0.82881 c -0.62416,1.72138 -3.57704,5.85097 -5.70625,7.98018 -3.64263,3.64262 -8.06512,6.1849 -13.21243,7.59517 -1.88797,0.51727 -2.80393,0.59278 -7.19066,0.59278 -5.58994,0 -7.25886,-0.30185 -11.45607,-2.07201 -4.43734,-1.87143 -9.62909,-6.06622 -12.08392,-9.76345 -0.55489,-0.83572 -1.06414,-1.51949 -1.13167,-1.51949 -0.0675,0 -0.85435,0.19004 -1.74848,0.42232 -2.30454,0.59869 -6.87731,0.40818 -9.03402,-0.37635 -1.83583,-0.66782 -4.84759,-2.64175 -5.85205,-3.83549 l -0.69191,-0.82228 -0.51346,0.65225 c -0.2824,0.35874 -1.09439,1.32029 -1.80442,2.13677 l -1.29097,1.48452 1.09165,0.32706 c 0.73365,0.21981 1.62433,0.86096 2.71595,1.95507 1.93284,1.93723 2.50875,3.34351 2.50875,6.12592 0,2.77715 -0.57694,4.19041 -2.49274,6.10622 -1.91581,1.9158 -3.32907,2.49274 -6.10622,2.49274 -2.7759,0 -4.18998,-0.57702 -6.1089,-2.49274 -2.02914,-2.02577 -2.56911,-3.45258 -2.44416,-6.45834 l 0.0864,-2.07806 -1.4552,0.4192 c -1.09192,0.31454 -2.67719,0.41973 -6.35001,0.42133 -4.30458,0.002 -5.14413,-0.0701 -6.96268,-0.59712 -4.17741,-1.2106 -6.92959,-2.63882 -10.40128,-5.39764 -1.71112,-1.35977 -5.3902,-5.52381 -5.3902,-6.10072 0,-0.11302 58.17934,-0.2055 129.28743,-0.2055 H 229.03466 Z M 40.445997,138.36472 c 0.94058,0.40602 2.23357,1.94735 2.4064,2.8686 0.42008,2.23922 -0.18413,4.06695 -1.73384,5.24483 -0.97031,0.7375 -4.35138,0.7375 -5.32168,0 -1.41436,-1.07501 -1.70479,-1.73114 -1.70479,-3.85147 0,-2.1207 0.2932,-2.7828 1.70334,-3.84647 0.74486,-0.56185 3.6999,-0.82586 4.65057,-0.41549 z"
       id="path847" />
  </g>
</svg>
