<?xml version="1.0" encoding="utf-8"?>
<!-- Generator: Adobe Illustrator 22.0.1, SVG Export Plug-In . SVG Version: 6.00 Build 0)  -->
<svg version="1.1" id="Layer_1" xmlns="http://www.w3.org/2000/svg" xmlns:xlink="http://www.w3.org/1999/xlink" x="0px" y="0px"
	 viewBox="0 0 497.8 362.4" style="enable-background:new 0 0 497.8 362.4;" xml:space="preserve">
<style type="text/css">
	.st0{fill:none;}
	.st1{fill:#7E6553;}
	.st2{fill:#7E6553;}
	.st3{fill:#F9EBCA;}
	.st4{fill:#F9EBCA;}
</style>
<g>
	<rect x="153.9" y="167" class="st0" width="43.2" height="66"/>
	<rect x="314.4" y="167" class="st0" width="43.2" height="66"/>
	<path class="st1" d="M153.9,81.8c0-3.4-1-6.8-2.8-9.6L110.4,8.3c-7.1-11.1-23.2-11.1-30.3,0L39.5,72.2c-1.8,2.9-2.8,6.2-2.8,9.6
		v26.5h117.3V81.8z M99.1,35L73.4,75.8c-1.9,3-5.1,4.6-8.4,4.6c-1.8,0-3.6-0.5-5.3-1.5c-4.6-2.9-6-9-3.1-13.6l25.7-40.8
		c2.9-4.6,9-6,13.6-3.1C100.6,24.3,102,30.4,99.1,35z"/>
	<path class="st1" d="M36.6,344.5c0,9.9,8,18,18,18H136c9.9,0,18-8,18-18v-52.9H36.6V344.5z"/>
	<rect x="36.6" y="167" class="st1" width="117.3" height="66"/>
	<rect x="197.1" y="167" class="st1" width="117.3" height="66"/>
	<path class="st1" d="M197.1,344.5c0,9.9,8,18,18,18h81.4c9.9,0,18-8,18-18v-52.9H197.1V344.5z"/>
	<path class="st1" d="M314.4,81.8c0-3.4-1-6.8-2.8-9.6L270.9,8.3c-7.1-11.1-23.2-11.1-30.3,0l-40.7,63.9c-1.8,2.9-2.8,6.2-2.8,9.6
		v26.5h117.3V81.8z M259.6,35l-25.7,40.8c-1.9,3-5.1,4.6-8.4,4.6c-1.8,0-3.6-0.5-5.3-1.5c-4.6-2.9-6-9-3.1-13.6l25.7-40.8
		c2.9-4.6,9-6,13.6-3.1C261.1,24.3,262.5,30.4,259.6,35z"/>
	<path class="st1" d="M357.5,344.5c0,9.9,8,18,18,18h81.4c9.9,0,18-8,18-18v-52.9H357.5V344.5z"/>
	<path class="st1" d="M474.8,81.8c0-3.4-1-6.8-2.8-9.6L431.3,8.3c-7.1-11.1-23.2-11.1-30.3,0l-40.7,63.9c-1.8,2.9-2.8,6.2-2.8,9.6
		v26.5h117.3V81.8z M420,35l-25.7,40.8c-1.9,3-5.1,4.6-8.4,4.6c-1.8,0-3.6-0.5-5.3-1.5c-4.6-2.9-6-9-3.1-13.6l25.7-40.8
		c2.9-4.6,9-6,13.6-3.1C421.5,24.3,422.9,30.4,420,35z"/>
	<rect x="357.5" y="167" class="st1" width="117.3" height="66"/>
	<path class="st2" d="M197.1,167h117.3h43.2h117.3h5.9c9.4,0,17.1-7.7,17.1-17.1v-24.4c0-9.4-7.7-17.1-17.1-17.1h-5.9H357.5h-43.2
		H197.1h-43.2H36.6H17.1C7.7,108.4,0,116,0,125.5v24.4c0,9.4,7.7,17.1,17.1,17.1h19.5h117.3H197.1z M416.2,121.5
		c8.9,0,16.2,7.2,16.2,16.2c0,8.9-7.2,16.2-16.2,16.2c-8.9,0-16.2-7.2-16.2-16.2C400,128.7,407.2,121.5,416.2,121.5z M255.7,121.5
		c8.9,0,16.2,7.2,16.2,16.2c0,8.9-7.2,16.2-16.2,16.2c-8.9,0-16.2-7.2-16.2-16.2C239.5,128.7,246.8,121.5,255.7,121.5z M95.3,153.9
		c-8.9,0-16.2-7.2-16.2-16.2c0-8.9,7.2-16.2,16.2-16.2c8.9,0,16.2,7.2,16.2,16.2C111.5,146.6,104.2,153.9,95.3,153.9z"/>
	<path class="st2" d="M314.4,233H197.1h-43.2H36.6H17.1C7.7,233,0,240.6,0,250.1v24.4c0,9.4,7.7,17.1,17.1,17.1h19.5h117.3h43.2
		h117.3h43.2h117.3h5.9c9.4,0,17.1-7.7,17.1-17.1v-24.4c0-9.4-7.7-17.1-17.1-17.1h-5.9H357.5H314.4z M95.3,278.5
		c-8.9,0-16.2-7.2-16.2-16.2c0-8.9,7.2-16.2,16.2-16.2c8.9,0,16.2,7.2,16.2,16.2C111.5,271.2,104.2,278.5,95.3,278.5z M255.7,278.5
		c-8.9,0-16.2-7.2-16.2-16.2c0-8.9,7.2-16.2,16.2-16.2c8.9,0,16.2,7.2,16.2,16.2C271.9,271.2,264.7,278.5,255.7,278.5z M416.2,246.1
		c8.9,0,16.2,7.2,16.2,16.2c0,8.9-7.2,16.2-16.2,16.2c-8.9,0-16.2-7.2-16.2-16.2C400,253.3,407.2,246.1,416.2,246.1z"/>
	<circle class="st3" cx="95.3" cy="137.7" r="16.2"/>
	<circle class="st3" cx="95.3" cy="262.3" r="16.2"/>
	<circle class="st3" cx="255.7" cy="262.3" r="16.2"/>
	<circle class="st3" cx="416.2" cy="262.3" r="16.2"/>
	<circle class="st3" cx="255.7" cy="137.7" r="16.2"/>
	<circle class="st3" cx="416.2" cy="137.7" r="16.2"/>
	<path class="st4" d="M96,21.4c-4.6-2.9-10.7-1.5-13.6,3.1L56.7,65.3c-2.9,4.6-1.5,10.7,3.1,13.6c1.6,1,3.5,1.5,5.3,1.5
		c3.3,0,6.5-1.6,8.4-4.6L99.1,35C102,30.4,100.6,24.3,96,21.4z"/>
	<path class="st4" d="M256.5,21.4c-4.6-2.9-10.7-1.5-13.6,3.1l-25.7,40.8c-2.9,4.6-1.5,10.7,3.1,13.6c1.6,1,3.5,1.5,5.3,1.5
		c3.3,0,6.5-1.6,8.4-4.6L259.6,35C262.5,30.4,261.1,24.3,256.5,21.4z"/>
	<path class="st4" d="M416.9,21.4c-4.6-2.9-10.7-1.5-13.6,3.1l-25.7,40.8c-2.9,4.6-1.5,10.7,3.1,13.6c1.6,1,3.5,1.5,5.3,1.5
		c3.3,0,6.5-1.6,8.4-4.6L420,35C422.9,30.4,421.5,24.3,416.9,21.4z"/>
</g>
</svg>
