<?xml version="1.0" standalone="no"?><svg xmlns:xlink="http://www.w3.org/1999/xlink" xmlns="http://www.w3.org/2000/svg" viewBox="0 0 1200 666.6683472316054" preserveAspectRatio="xMaxYMax slice"><g transform="scale(3.025016889677634)"><rect x="0" y="0" width="396.693" height="220.385" fill="#3c3c3c"/><rect x="0" y="0" width="44.077" height="44.077" fill="#3c3c3c"/><rect x="0" y="0" width="22.04" height="22.04" fill="#a46f52"/><path d="M 0 22.04 A 22.04 22.04 0 0 1 22.04 0 L 22.04 5.51 A 16.53 16.53 0 0 0 5.51 22.04" fill="#c1b18d"/><rect x="22.04" y="0" width="22.04" height="22.04" fill="#9d9177"/><path d="M 22.04 0 A 22.04 22.04 0 0 1 44.08 22.04 L 38.57 22.04 A 16.53 16.53 0 0 0 22.04 5.51" fill="#9d6c51"/><rect x="0" y="22.04" width="22.04" height="22.04" fill="#524741"/><path d="M 0 22.04 A 22.04 22.04 0 0 0 22.04 44.08 L 22.04 38.57 A 16.53 16.53 0 0 1 5.51 22.04" fill="#a4987c"/><rect x="22.04" y="22.04" width="22.04" height="22.04" fill="#817966"/><path d="M 22.04 44.08 A 22.04 22.04 0 0 0 44.08 22.04 L 38.57 22.04 A 16.53 16.53 0 0 1 22.04 38.57" fill="#7b5b4a"/><rect x="44.077" y="0" width="44.077" height="44.077" fill="#3c3c3c"/><rect x="44.08" y="0" width="22.04" height="22.04" fill="#c37e59"/><polygon points="44.08,0 66.12,0 44.08,22.04" fill="#656055"/><rect x="66.12" y="0" width="22.04" height="22.04" fill="#41403f"/><polygon points="66.12,0 88.16,0 88.16,22.04" fill="#bf7c58"/><rect x="44.08" y="22.04" width="22.04" height="22.04" fill="#cc825b"/><polygon points="66.12,22.04 66.12,44.08 44.08,44.08" fill="#514641"/><rect x="66.12" y="22.04" width="22.04" height="22.04" fill="#805d4b"/><polygon points="66.12,22.04 88.16,44.08 66.12,44.08" fill="#56534c"/><rect x="88.154" y="0" width="44.077" height="44.077" fill="#3c3c3c"/><rect x="88.15" y="0" width="22.04" height="22.04" fill="#7a5b4a"/><path d="M 88.15 22.04 A 22.04 22.04 0 0 1  110.19 0 L 110.19 22.04" fill="#705647"/><rect x="110.19" y="0" width="22.04" height="22.04" fill="#c3b38e"/><path d="M 110.19 0 A 22.04 22.04 0 0 1 132.23 22.04 L 110.19 22.04" fill="#8b816c"/><rect x="88.15" y="22.04" width="22.04" height="22.04" fill="#765949"/><path d="M 88.15 22.04 A 22.04 22.04 0 0 0 110.19 44.08 L 110.19 22.04" fill="#e6d2a4"/><rect x="110.19" y="22.04" width="22.04" height="22.04" fill="#d0be96"/><path d="M 110.19 44.08 A 22.04 22.04 0 0 0 132.23 22.04 L 110.19 22.04" fill="#dac79c"/><rect x="132.23" y="0" width="44.08" height="44.08" fill="#5c4b43"/><path d="M 132.23 0 A 44.08 44.08 0 0 1 176.31 44.08 L 132.23 44.08" fill="#857c68"/><rect x="176.308" y="0" width="44.077" height="44.077" fill="#3c3c3c"/><rect x="176.31" y="0" width="22.04" height="22.04" fill="#8a624d"/><path d="M 176.31 22.04 A 22.04 22.04 0 0 1  198.35 0 L 198.35 22.04" fill="#b27655"/><rect x="198.35" y="0" width="22.04" height="22.04" fill="#5c584f"/><path d="M 198.35 0 A 22.04 22.04 0 0 1 220.39 22.04 L 198.35 22.04" fill="#8a624d"/><rect x="176.31" y="22.04" width="22.04" height="22.04" fill="#d7c59b"/><path d="M 176.31 22.04 A 22.04 22.04 0 0 0 198.35 44.08 L 198.35 22.04" fill="#86604c"/><rect x="198.35" y="22.04" width="22.04" height="22.04" fill="#4c4a46"/><path d="M 198.35 44.08 A 22.04 22.04 0 0 0 220.39 22.04 L 198.35 22.04" fill="#948971"/><rect x="220.385" y="0" width="44.077" height="44.077" fill="#3c3c3c"/><rect x="220.39" y="0" width="22.04" height="22.04" fill="#eed9a9"/><path d="M 220.39 22.04 A 22.04 22.04 0 0 0 242.42999999999998 0 L 220.39 0" fill="#a26e52"/><rect x="242.42" y="0" width="22.04" height="22.04" fill="#bdad8a"/><path d="M 242.42 0 A 22.04 22.04 0 0 0 264.46 22.04 L 264.46 0" fill="#aa7254"/><rect x="220.39" y="22.04" width="22.04" height="22.04" fill="#5e5a51"/><path d="M 220.39 22.04 A 22.04 22.04 0 0 1 242.42999999999998 44.08 L 220.39 44.08" fill="#89806b"/><rect x="242.42" y="22.04" width="22.04" height="22.04" fill="#d4c299"/><path d="M 242.42 44.08 A 22.04 22.04 0 0 1  264.46 22.04 L 264.46 44.08" fill="#817966"/><rect x="264.46" y="0" width="44.08" height="44.08" fill="#5d4c43"/><polygon points="264.46,0 308.53999999999996,0 308.53999999999996,44.08" fill="#8d644d"/><rect x="308.54" y="0" width="44.08" height="44.08" fill="#5a4b42"/><polygon points="308.54,0 352.62,0 352.62,44.08" fill="#554842"/><rect x="352.616" y="0" width="44.077" height="44.077" fill="#3c3c3c"/><rect x="352.62" y="0" width="22.04" height="22.04" fill="#cab992"/><polygon points="352.62,0 374.66,0 352.62,22.04" fill="#52504a"/><rect x="374.65" y="0" width="22.04" height="22.04" fill="#b67856"/><polygon points="374.65,0 396.69,0 396.69,22.04" fill="#baab89"/><rect x="352.62" y="22.04" width="22.04" height="22.04" fill="#bc7b58"/><polygon points="352.62,22.04 374.66,44.08 352.62,44.08" fill="#655045"/><rect x="374.65" y="22.04" width="22.04" height="22.04" fill="#7b7462"/><polygon points="396.69,22.04 396.69,44.08 374.65,44.08" fill="#7a5a49"/><rect x="0" y="44.077" width="44.077" height="44.077" fill="#3c3c3c"/><rect x="0" y="44.08" width="22.04" height="22.04" fill="#6f5547"/><path d="M 0 44.08 A 22.04 22.04 0 0 1 22.04 66.12 L 0 66.12" fill="#a77153"/><rect x="22.04" y="44.08" width="22.04" height="22.04" fill="#a67053"/><path d="M 22.04 66.12 A 22.04 22.04 0 0 1  44.08 44.08 L 44.08 66.12" fill="#bcad8a"/><rect x="0" y="66.12" width="22.04" height="22.04" fill="#c57f5a"/><path d="M 0 88.16 A 22.04 22.04 0 0 0 22.04 66.12 L 0 66.12" fill="#88614c"/><rect x="22.04" y="66.12" width="22.04" height="22.04" fill="#d7c59a"/><path d="M 22.04 66.12 A 22.04 22.04 0 0 0 44.08 88.16 L 44.08 66.12" fill="#41403f"/><rect x="44.077" y="44.077" width="44.077" height="44.077" fill="#3c3c3c"/><rect x="44.08" y="44.08" width="22.04" height="22.04" fill="#bf7c58"/><path d="M 44.08 66.12 A 22.04 22.04 0 0 0 66.12 44.08 L 44.08 44.08" fill="#a97154"/><rect x="66.12" y="44.08" width="22.04" height="22.04" fill="#b07555"/><path d="M 66.12 44.08 A 22.04 22.04 0 0 0 88.16 66.12 L 88.16 44.08" fill="#ead6a6"/><rect x="44.08" y="66.12" width="22.04" height="22.04" fill="#ca825b"/><path d="M 44.08 66.12 A 22.04 22.04 0 0 1 66.12 88.16 L 44.08 88.16" fill="#5f5b52"/><rect x="66.12" y="66.12" width="22.04" height="22.04" fill="#7a7262"/><path d="M 66.12 88.16 A 22.04 22.04 0 0 1  88.16 66.12 L 88.16 88.16" fill="#6e685a"/><rect x="88.154" y="44.077" width="44.077" height="44.077" fill="#3c3c3c"/><rect x="88.15" y="44.08" width="22.04" height="22.04" fill="#815e4b"/><path d="M 88.15 66.12 A 22.04 22.04 0 0 1  110.19 44.08 L 110.19 66.12" fill="#4b4945"/><rect x="110.19" y="44.08" width="22.04" height="22.04" fill="#8b634d"/><path d="M 110.19 44.08 A 22.04 22.04 0 0 1 132.23 66.12 L 110.19 66.12" fill="#938971"/><rect x="88.15" y="66.12" width="22.04" height="22.04" fill="#9a6a50"/><path d="M 88.15 66.12 A 22.04 22.04 0 0 0 110.19 88.16 L 110.19 66.12" fill="#514641"/><rect x="110.19" y="66.12" width="22.04" height="22.04" fill="#736c5d"/><path d="M 110.19 88.16 A 22.04 22.04 0 0 0 132.23 66.12 L 110.19 66.12" fill="#4c443f"/><rect x="132.23" y="44.08" width="44.08" height="44.08" fill="#795a49"/><path d="M 132.23 88.16 A 44.08 44.08 0 0 1  176.31 44.08 L 132.23 88.16 A 44.08 44.08 0 0 0 176.31 44.08" fill="#b2a484"/><rect x="176.308" y="44.077" width="44.077" height="44.077" fill="#3c3c3c"/><rect x="176.31" y="44.08" width="22.04" height="22.04" fill="#6e5447"/><path d="M 176.31 44.08 A 22.04 22.04 0 0 0 198.35 66.12 L 198.35 44.08" fill="#787160"/><rect x="198.35" y="44.08" width="22.04" height="22.04" fill="#756e5f"/><path d="M 198.35 66.12 A 22.04 22.04 0 0 0 220.39 44.08 L 198.35 44.08" fill="#655045"/><rect x="176.31" y="66.12" width="22.04" height="22.04" fill="#e6d2a4"/><path d="M 176.31 88.16 A 22.04 22.04 0 0 1  198.35 66.12 L 198.35 88.16" fill="#c8815a"/><rect x="198.35" y="66.12" width="22.04" height="22.04" fill="#8f856e"/><path d="M 198.35 66.12 A 22.04 22.04 0 0 1 220.39 88.16 L 198.35 88.16" fill="#d1855c"/><rect x="220.385" y="44.077" width="44.077" height="44.077" fill="#3c3c3c"/><rect x="220.39" y="44.08" width="22.04" height="22.04" fill="#5e4d43"/><path d="M 220.39 66.12 A 22.04 22.04 0 0 1  242.42999999999998 44.08 L 242.42999999999998 66.12" fill="#9f6c51"/><rect x="242.42" y="44.08" width="22.04" height="22.04" fill="#c17d59"/><path d="M 242.42 44.08 A 22.04 22.04 0 0 1 264.46 66.12 L 242.42 66.12" fill="#4d4b47"/><rect x="220.39" y="66.12" width="22.04" height="22.04" fill="#9c6b51"/><path d="M 220.39 66.12 A 22.04 22.04 0 0 0 242.42999999999998 88.16 L 242.42999999999998 66.12" fill="#785949"/><rect x="242.42" y="66.12" width="22.04" height="22.04" fill="#f5e0ad"/><path d="M 242.42 88.16 A 22.04 22.04 0 0 0 264.46 66.12 L 242.42 66.12" fill="#766f60"/><rect x="264.46" y="44.08" width="44.08" height="44.08" fill="#534741"/><path d="M 264.46 44.08 A 44.08 44.08 0 0 1 308.53999999999996 88.16 L 264.46 88.16" fill="#835f4b"/><rect x="308.539" y="44.077" width="44.077" height="44.077" fill="#3c3c3c"/><rect x="308.54" y="44.08" width="22.04" height="22.04" fill="#948971"/><polygon points="308.54,44.08 330.58000000000004,44.08 308.54,66.12" fill="#5c5850"/><rect x="330.58" y="44.08" width="22.04" height="22.04" fill="#b97957"/><polygon points="330.58,44.08 352.62,44.08 352.62,66.12" fill="#a46f53"/><rect x="308.54" y="66.12" width="22.04" height="22.04" fill="#3f3f3e"/><polygon points="330.58000000000004,66.12 330.58000000000004,88.16 308.54,88.16" fill="#706a5c"/><rect x="330.58" y="66.12" width="22.04" height="22.04" fill="#92664f"/><polygon points="330.58,66.12 352.62,88.16 330.58,88.16" fill="#624f44"/><rect x="352.62" y="44.08" width="44.08" height="44.08" fill="#413f3d"/><polygon points="352.62,44.08 396.7,44.08 352.62,88.16" fill="#8e644e"/><rect x="0" y="88.154" width="44.077" height="44.077" fill="#3c3c3c"/><rect x="0" y="88.15" width="22.04" height="22.04" fill="#cfbe96"/><polygon points="0,88.15 22.04,88.15 0,110.19" fill="#645f54"/><rect x="22.04" y="88.15" width="22.04" height="22.04" fill="#8e644e"/><polygon points="22.04,88.15 44.08,88.15 44.08,110.19" fill="#a56f53"/><rect x="0" y="110.19" width="22.04" height="22.04" fill="#716b5c"/><polygon points="22.04,110.19 22.04,132.23 0,132.23" fill="#6c6659"/><rect x="22.04" y="110.19" width="22.04" height="22.04" fill="#56534c"/><polygon points="22.04,110.19 44.08,132.23 22.04,132.23" fill="#c8b892"/><rect x="44.08" y="88.15" width="44.08" height="44.08" fill="#928871"/><path d="M 44.08 132.23000000000002 A 44.08 44.08 0 0 1  88.16 88.15 L 44.08 132.23000000000002 A 44.08 44.08 0 0 0 88.16 88.15" fill="#3d3d3d"/><rect x="88.15" y="88.15" width="44.08" height="44.08" fill="#3e3e3d"/><rect x="88.15" y="88.15" width="44.08" height="44.08" fill="#a46f53"/><rect x="132.231" y="88.154" width="44.077" height="44.077" fill="#3c3c3c"/><rect x="132.23" y="88.15" width="22.04" height="22.04" fill="#bc7b58"/><path d="M 132.23 110.19 A 22.04 22.04 0 0 0 154.26999999999998 88.15 L 132.23 88.15" fill="#f4deac"/><rect x="154.27" y="88.15" width="22.04" height="22.04" fill="#3d3d3d"/><path d="M 154.27 88.15 A 22.04 22.04 0 0 0 176.31 110.19 L 176.31 88.15" fill="#d5c399"/><rect x="132.23" y="110.19" width="22.04" height="22.04" fill="#d4875d"/><path d="M 132.23 110.19 A 22.04 22.04 0 0 1 154.26999999999998 132.23 L 132.23 132.23" fill="#47413e"/><rect x="154.27" y="110.19" width="22.04" height="22.04" fill="#bb7a57"/><path d="M 154.27 132.23 A 22.04 22.04 0 0 1  176.31 110.19 L 176.31 132.23" fill="#825e4b"/><rect x="176.308" y="88.154" width="44.077" height="44.077" fill="#3c3c3c"/><rect x="176.31" y="88.15" width="22.04" height="22.04" fill="#cc835b"/><path d="M 176.31 88.15 A 22.04 22.04 0 0 1 198.35 110.19 L 176.31 110.19" fill="#403e3d"/><rect x="198.35" y="88.15" width="22.04" height="22.04" fill="#a5997c"/><path d="M 198.35 110.19 A 22.04 22.04 0 0 1  220.39 88.15 L 220.39 110.19" fill="#4d4b47"/><rect x="176.31" y="110.19" width="22.04" height="22.04" fill="#5c5850"/><path d="M 176.31 132.23 A 22.04 22.04 0 0 0 198.35 110.19 L 176.31 110.19" fill="#b7a887"/><rect x="198.35" y="110.19" width="22.04" height="22.04" fill="#cbba93"/><path d="M 198.35 110.19 A 22.04 22.04 0 0 0 220.39 132.23 L 220.39 110.19" fill="#6d5447"/><rect x="220.385" y="88.154" width="44.077" height="44.077" fill="#3c3c3c"/><rect x="220.39" y="88.15" width="22.04" height="22.04" fill="#6b6659"/><path d="M 220.39 88.15 A 22.04 22.04 0 0 1 242.42999999999998 110.19 L 220.39 110.19" fill="#7c5b4a"/><rect x="242.42" y="88.15" width="22.04" height="22.04" fill="#ab9e80"/><path d="M 242.42 110.19 A 22.04 22.04 0 0 1  264.46 88.15 L 264.46 110.19" fill="#9d9177"/><rect x="220.39" y="110.19" width="22.04" height="22.04" fill="#41403f"/><path d="M 220.39 132.23 A 22.04 22.04 0 0 0 242.42999999999998 110.19 L 220.39 110.19" fill="#90866f"/><rect x="242.42" y="110.19" width="22.04" height="22.04" fill="#656055"/><path d="M 242.42 110.19 A 22.04 22.04 0 0 0 264.46 132.23 L 264.46 110.19" fill="#8f644e"/><rect x="264.46" y="88.15" width="44.08" height="44.08" fill="#5f5b52"/><path d="M 264.46 132.23000000000002 A 44.08 44.08 0 0 1  308.53999999999996 88.15 L 308.53999999999996 132.23000000000002" fill="#6b5346"/><rect x="308.539" y="88.154" width="44.077" height="44.077" fill="#3c3c3c"/><rect x="308.54" y="88.15" width="22.04" height="22.04" fill="#ddca9e"/><path d="M 308.54 110.19 A 22.04 22.04 0 0 1 330.58000000000004 88.15 L 330.58000000000004 93.66000000000001 A 16.53 16.53 0 0 0 314.05 110.19" fill="#ccbb94"/><rect x="330.58" y="88.15" width="22.04" height="22.04" fill="#d9895e"/><path d="M 330.58 88.15 A 22.04 22.04 0 0 1 352.62 110.19 L 347.11 110.19 A 16.53 16.53 0 0 0 330.58 93.66000000000001" fill="#ecd7a7"/><rect x="308.54" y="110.19" width="22.04" height="22.04" fill="#c5b58f"/><path d="M 308.54 110.19 A 22.04 22.04 0 0 0 330.58000000000004 132.23 L 330.58000000000004 126.72 A 16.53 16.53 0 0 1 314.05 110.19" fill="#665145"/><rect x="330.58" y="110.19" width="22.04" height="22.04" fill="#ada081"/><path d="M 330.58 132.23 A 22.04 22.04 0 0 0 352.62 110.19 L 347.11 110.19 A 16.53 16.53 0 0 1 330.58 126.72" fill="#c8815a"/><rect x="352.62" y="88.15" width="44.08" height="44.08" fill="#f4deac"/><rect x="352.62" y="88.15" width="44.08" height="44.08" fill="#6a6558"/><rect x="0" y="132.231" width="44.077" height="44.077" fill="#3c3c3c"/><rect x="0" y="132.23" width="22.04" height="22.04" fill="#7e5c4a"/><path d="M 0 154.26999999999998 A 22.04 22.04 0 0 0 22.04 132.23 L 0 132.23" fill="#5a4b42"/><rect x="22.04" y="132.23" width="22.04" height="22.04" fill="#424140"/><path d="M 22.04 132.23 A 22.04 22.04 0 0 0 44.08 154.26999999999998 L 44.08 132.23" fill="#825e4b"/><rect x="0" y="154.27" width="22.04" height="22.04" fill="#998e75"/><path d="M 0 154.27 A 22.04 22.04 0 0 1 22.04 176.31 L 0 176.31" fill="#6b5346"/><rect x="22.04" y="154.27" width="22.04" height="22.04" fill="#8e644e"/><path d="M 22.04 176.31 A 22.04 22.04 0 0 1  44.08 154.27 L 44.08 176.31" fill="#a67053"/><rect x="44.077" y="132.231" width="44.077" height="44.077" fill="#3c3c3c"/><rect x="44.08" y="132.23" width="22.04" height="22.04" fill="#a06d52"/><path d="M 44.08 154.26999999999998 A 22.04 22.04 0 0 0 66.12 132.23 L 44.08 132.23" fill="#847b68"/><rect x="66.12" y="132.23" width="22.04" height="22.04" fill="#785949"/><path d="M 66.12 132.23 A 22.04 22.04 0 0 0 88.16 154.26999999999998 L 88.16 132.23" fill="#e7d2a4"/><rect x="44.08" y="154.27" width="22.04" height="22.04" fill="#c8b791"/><path d="M 44.08 154.27 A 22.04 22.04 0 0 1 66.12 176.31 L 44.08 176.31" fill="#a16e52"/><rect x="66.12" y="154.27" width="22.04" height="22.04" fill="#ca825b"/><path d="M 66.12 176.31 A 22.04 22.04 0 0 1  88.16 154.27 L 88.16 176.31" fill="#686357"/><rect x="88.154" y="132.231" width="44.077" height="44.077" fill="#3c3c3c"/><rect x="88.15" y="132.23" width="22.04" height="22.04" fill="#b37656"/><polygon points="88.15,132.23 110.19,132.23 88.15,154.26999999999998" fill="#e7d3a4"/><rect x="110.19" y="132.23" width="22.04" height="22.04" fill="#9c6b51"/><polygon points="132.23,132.23 132.23,154.26999999999998 110.19,154.26999999999998" fill="#625e53"/><rect x="88.15" y="154.27" width="22.04" height="22.04" fill="#e0cda0"/><polygon points="88.15,154.27 110.19,154.27 110.19,176.31" fill="#857c68"/><rect x="110.19" y="154.27" width="22.04" height="22.04" fill="#d2865d"/><polygon points="110.19,154.27 132.23,176.31 110.19,176.31" fill="#59554e"/><rect x="132.231" y="132.231" width="44.077" height="44.077" fill="#3c3c3c"/><rect x="132.23" y="132.23" width="22.04" height="22.04" fill="#645f54"/><path d="M 132.23 132.23 A 22.04 22.04 0 0 0 154.26999999999998 154.26999999999998 L 154.26999999999998 132.23" fill="#998e75"/><rect x="154.27" y="132.23" width="22.04" height="22.04" fill="#a97154"/><path d="M 154.27 154.26999999999998 A 22.04 22.04 0 0 0 176.31 132.23 L 154.27 132.23" fill="#b97957"/><rect x="132.23" y="154.27" width="22.04" height="22.04" fill="#b9aa88"/><path d="M 132.23 176.31 A 22.04 22.04 0 0 1  154.26999999999998 154.27 L 154.26999999999998 176.31" fill="#666156"/><rect x="154.27" y="154.27" width="22.04" height="22.04" fill="#725748"/><path d="M 154.27 154.27 A 22.04 22.04 0 0 1 176.31 176.31 L 154.27 176.31" fill="#bd7b58"/><rect x="176.308" y="132.231" width="44.077" height="44.077" fill="#3c3c3c"/><rect x="176.31" y="132.23" width="22.04" height="22.04" fill="#90866f"/><path d="M 176.31 132.23 A 22.04 22.04 0 0 0 198.35 154.26999999999998 L 198.35 132.23" fill="#8b634d"/><rect x="198.35" y="132.23" width="22.04" height="22.04" fill="#514e49"/><path d="M 198.35 154.26999999999998 A 22.04 22.04 0 0 0 220.39 132.23 L 198.35 132.23" fill="#988d74"/><rect x="176.31" y="154.27" width="22.04" height="22.04" fill="#b7a987"/><path d="M 176.31 176.31 A 22.04 22.04 0 0 1  198.35 154.27 L 198.35 176.31" fill="#a2967a"/><rect x="198.35" y="154.27" width="22.04" height="22.04" fill="#d8895e"/><path d="M 198.35 154.27 A 22.04 22.04 0 0 1 220.39 176.31 L 198.35 176.31" fill="#8c634d"/><rect x="220.39" y="132.23" width="44.08" height="44.08" fill="#e6d2a3"/><path d="M 220.39 132.23 A 44.08 44.08 0 0 1 264.46999999999997 176.31 L 220.39 176.31" fill="#676256"/><rect x="264.46" y="132.23" width="44.08" height="44.08" fill="#b4a685"/><rect x="264.46" y="132.23" width="44.08" height="44.08" fill="#5f4d44"/><rect x="308.539" y="132.231" width="44.077" height="44.077" fill="#3c3c3c"/><rect x="308.54" y="132.23" width="22.04" height="22.04" fill="#996950"/><path d="M 308.54 132.23 A 22.04 22.04 0 0 0 330.58000000000004 154.26999999999998 L 330.58000000000004 132.23" fill="#ce845c"/><rect x="330.58" y="132.23" width="22.04" height="22.04" fill="#91664e"/><path d="M 330.58 154.26999999999998 A 22.04 22.04 0 0 0 352.62 132.23 L 330.58 132.23" fill="#574942"/><rect x="308.54" y="154.27" width="22.04" height="22.04" fill="#726c5d"/><path d="M 308.54 176.31 A 22.04 22.04 0 0 1  330.58000000000004 154.27 L 330.58000000000004 176.31" fill="#95684f"/><rect x="330.58" y="154.27" width="22.04" height="22.04" fill="#484643"/><path d="M 330.58 154.27 A 22.04 22.04 0 0 1 352.62 176.31 L 330.58 176.31" fill="#90654e"/><rect x="352.616" y="132.231" width="44.077" height="44.077" fill="#3c3c3c"/><rect x="352.62" y="132.23" width="22.04" height="22.04" fill="#807866"/><path d="M 352.62 132.23 A 22.04 22.04 0 0 0 374.66 154.26999999999998 L 374.66 132.23" fill="#41403f"/><rect x="374.65" y="132.23" width="22.04" height="22.04" fill="#8b634d"/><path d="M 374.65 154.26999999999998 A 22.04 22.04 0 0 0 396.69 132.23 L 374.65 132.23" fill="#beaf8c"/><rect x="352.62" y="154.27" width="22.04" height="22.04" fill="#6a6558"/><path d="M 352.62 176.31 A 22.04 22.04 0 0 1  374.66 154.27 L 374.66 176.31" fill="#c0b08d"/><rect x="374.65" y="154.27" width="22.04" height="22.04" fill="#ad7354"/><path d="M 374.65 154.27 A 22.04 22.04 0 0 1 396.69 176.31 L 374.65 176.31" fill="#b9aa88"/><rect x="0" y="176.31" width="44.08" height="44.08" fill="#c57f5a"/><polygon points="0,176.31 44.08,220.39 0,220.39" fill="#403e3d"/><rect x="44.077" y="176.308" width="44.077" height="44.077" fill="#3c3c3c"/><rect x="44.08" y="176.31" width="22.04" height="22.04" fill="#715647"/><path d="M 44.08 198.35 A 22.04 22.04 0 0 1 66.12 176.31 L 66.12 181.82 A 16.53 16.53 0 0 0 49.589999999999996 198.35" fill="#57544d"/><rect x="66.12" y="176.31" width="22.04" height="22.04" fill="#c4b48f"/><path d="M 66.12 176.31 A 22.04 22.04 0 0 1 88.16 198.35 L 82.65 198.35 A 16.53 16.53 0 0 0 66.12 181.82" fill="#5d4c43"/><rect x="44.08" y="198.35" width="22.04" height="22.04" fill="#4d4540"/><path d="M 44.08 198.35 A 22.04 22.04 0 0 0 66.12 220.39 L 66.12 214.88 A 16.53 16.53 0 0 1 49.589999999999996 198.35" fill="#e1cda0"/><rect x="66.12" y="198.35" width="22.04" height="22.04" fill="#85604c"/><path d="M 66.12 220.39 A 22.04 22.04 0 0 0 88.16 198.35 L 82.65 198.35 A 16.53 16.53 0 0 1 66.12 214.88" fill="#cf845c"/><rect x="88.15" y="176.31" width="44.08" height="44.08" fill="#5d4c43"/><rect x="88.15" y="176.31" width="44.08" height="44.08" fill="#665145"/><rect x="132.231" y="176.308" width="44.077" height="44.077" fill="#3c3c3c"/><rect x="132.23" y="176.31" width="22.04" height="22.04" fill="#ca825b"/><path d="M 132.23 176.31 A 22.04 22.04 0 0 1 154.26999999999998 198.35 L 132.23 198.35" fill="#ab7254"/><rect x="154.27" y="176.31" width="22.04" height="22.04" fill="#b77857"/><path d="M 154.27 198.35 A 22.04 22.04 0 0 1  176.31 176.31 L 176.31 198.35" fill="#b1a383"/><rect x="132.23" y="198.35" width="22.04" height="22.04" fill="#86604c"/><path d="M 132.23 220.39 A 22.04 22.04 0 0 0 154.26999999999998 198.35 L 132.23 198.35" fill="#696357"/><rect x="154.27" y="198.35" width="22.04" height="22.04" fill="#5c4c43"/><path d="M 154.27 198.35 A 22.04 22.04 0 0 0 176.31 220.39 L 176.31 198.35" fill="#b67856"/><rect x="176.31" y="176.31" width="44.08" height="44.08" fill="#785949"/><path d="M 176.31 220.39 A 44.08 44.08 0 0 1  220.39 176.31 L 176.31 220.39 A 44.08 44.08 0 0 0 220.39 176.31" fill="#b27656"/><rect x="220.39" y="176.31" width="44.08" height="44.08" fill="#f6e0ae"/><path d="M 220.39 176.31 A 44.08 44.08 0 0 0 264.46999999999997 220.39 L 264.46999999999997 176.31" fill="#c27d59"/><rect x="264.46" y="176.31" width="44.08" height="44.08" fill="#d4c299"/><polygon points="264.46,176.31 308.53999999999996,220.39 264.46,220.39" fill="#938971"/><rect x="308.54" y="176.31" width="44.08" height="44.08" fill="#474543"/><polygon points="352.62,176.31 352.62,220.39 308.54,220.39" fill="#c17d59"/><rect x="352.616" y="176.308" width="44.077" height="44.077" fill="#3c3c3c"/><rect x="352.62" y="176.31" width="22.04" height="22.04" fill="#6d5447"/><circle cx="363.64" cy="187.33" r="11.02" fill="#cc835b"/><rect x="374.65" y="176.31" width="22.04" height="22.04" fill="#514e49"/><rect x="374.65" y="176.31" width="22.04" height="22.04" fill="#a77153"/><rect x="352.62" y="198.35" width="22.04" height="22.04" fill="#827a67"/><circle cx="363.64" cy="209.37" r="11.02" fill="#a46f53"/><rect x="374.65" y="198.35" width="22.04" height="22.04" fill="#464542"/><rect x="374.65" y="198.35" width="22.04" height="22.04" fill="#544841"/></g></svg>